# xmcd
#
# Track frame offsets:
#	150
#	11786
#	24017
#	33382
#	42872
#	55274
#	65437
#	75248
#	85801
#	98172
#	111504
#	123812
#	137684
#	152489
#	163125
#	175172
#	187295
#	199342
#	211483
#	221168
#	231080
#	244788
#	256361
#	268673
#	279783
#	291861
#	303385
#	318190
#
# Disc length: 4424 seconds
#
# Revision: 1
# Processed by: cddbd v1.5.2PL0 Copyright (c) Steve Scherf et al.
# Submitted via: audiograbber 1.83.01
#
DISCID=8a11461c
DTITLE=Loretta Lynn - Various
DYEAR=1900
DGENRE=
TTITLE0=I'M a Honky Tonk Girl
TTITLE1=Success
TTITLE2=Wine, Women And Song
TTITLE3=Happy Birthyday
TTITLE4=Blue Kentucky Girl
TTITLE5=You Ain't Woman Enough
TTITLE6=Don't Come Home A-Drinking
TTITLE7=You've Just Stepped In
TTITLE8=Mr. And Mrs. Used To Be
TTITLE9=Woman Of The World
TTITLE10=Out Of My Head And Back In My Bed
TTITLE11=Somebody SomewhereDon't Know 
TTITLE12=I Can't Feel You Anymore
TTITLE13=You're Looking At Country
TTITLE14=One's On The Way
TTITLE15=Rated X
TTITLE16=The Pill
TTITLE17=Wings Upon Your Horn
TTITLE18=Squaw On The Warpath
TTITLE19=Trouble In Paradise
TTITLE20=Feeling
TTITLE21=Louisana Woman, Miss. Man
TTITLE22=As Soon As I Hang Up the Phone
TTITLE23=Lead Me On
TTITLE24=After The Fire Is Gone
TTITLE25=Love Is The Foundation
TTITLE26=I Can't Feel You Anymore
TTITLE27=When The Tingle Becomes A Chill
EXTD=
EXTT0=
EXTT1=
EXTT2=
EXTT3=
EXTT4=
EXTT5=
EXTT6=
EXTT7=
EXTT8=
EXTT9=
EXTT10=
EXTT11=
EXTT12=
EXTT13=
EXTT14=
EXTT15=
EXTT16=
EXTT17=
EXTT18=
EXTT19=
EXTT20=
EXTT21=
EXTT22=
EXTT23=
EXTT24=
EXTT25=
EXTT26=
EXTT27=
PLAYORDER=
